# xmcd CD database file
#
# Track frame offsets:
#	150
#	12409
#	27287
#	38087
#	53147
#	58085
#	65320
#	75632
#	77307
#	89590
#	99747
#	113087
#	120315
#	131425
#	132885
#	143355
#	152737
#	159755
#	168125
#	175759
#
# Disc length: 2429 seconds
#
# Revision: 4
# Processed by: cddbd v1.5.2PL0 Copyright (c) Steve Scherf et al.
# Submitted via: CDex 1.70beta2
#
DISCID=ea097b14
DTITLE=Jani Uhleniuksen yhtye - Isojen poikien lauluja 2
DYEAR=2000
DGENRE=Kotimainen
TTITLE0=Ryynipussi - Vihtori Lettunen
TTITLE1=Maikin polkka - Lauri Ladonlukko ja Jani Uhlenius
TTITLE2=Sepän sälli - Isot Pojat
TTITLE3=Laulu Maijasta - Lauri Ladonlukko
TTITLE4=Ei siellä vintillä vitkasteltu - Isot Pojat
TTITLE5=Tyttö istui rannalla rapakiven pääll' - Hilkka Ylämäki ja Terttu-Anneli
TTITLE6=Korholan tyttäret - Veikko Lavi
TTITLE7=Voi minun tätini - Lauri Ladonlukko
TTITLE8=Väärän koivun alla - Sakari Lehtinen
TTITLE9=Myllyromantiikkaa - Isot pojat
TTITLE10=Luonnon öljypuu - Terttu-Anneli
TTITLE11=Saarijärven Tiltu - Hilkka Ylämäki
TTITLE12=Iitin Tiltu - Jani Uhlenius
TTITLE13=Voi pojat perkeleet - K Urhonen
TTITLE14=Nätin tytön nänninpäät - Isot Pojat ja Tytöt
TTITLE15=Vinkkelisakset - Isot Pojat ja Tytöt
TTITLE16=Lauttalaulu - Isot Pojat ja Tytöt
TTITLE17=Niku-naku-nei - Isot Pojat ja Tytöt
TTITLE18=Totta jumalauta - Isot Pojat ja Tytöt
TTITLE19=Laulu Kyllikistä - Isot Pojat ja Tytöt
EXTD=YEAR: 2000
EXTT0=
EXTT1=
EXTT2=
EXTT3=
EXTT4=
EXTT5=
EXTT6=
EXTT7=
EXTT8=
EXTT9=
EXTT10=
EXTT11=
EXTT12=
EXTT13=
EXTT14=
EXTT15=
EXTT16=
EXTT17=
EXTT18=
EXTT19=
PLAYORDER=
